<svg width="360" height="81" viewBox="0 0 360 81" fill="none" xmlns="http://www.w3.org/2000/svg">
<rect width="1" height="1" transform="matrix(-1 0 0 1 3 2)" fill="white"/>
<rect width="1" height="1" transform="matrix(-1 0 0 1 2 3)" fill="white"/>
<rect width="1" height="1" transform="matrix(-1 0 0 1 3 1)" fill="#2B1A1A"/>
<rect width="1" height="1" transform="matrix(-1 0 0 1 2 2)" fill="#2B1A1A"/>
<rect width="1" height="1" transform="matrix(-1 0 0 1 3 3)" fill="#2B1A1A"/>
<rect width="1" height="1" transform="matrix(-1 0 0 1 1 3)" fill="#2B1A1A"/>
<rect width="354" height="1" transform="translate(3)" fill="#2B1A1A"/>
<rect width="354" height="1" transform="translate(3 1)" fill="white"/>
<rect width="354" height="1" transform="translate(3 2)" fill="#2B1A1A"/>
<rect width="354" height="1" transform="translate(3 3)" fill="#5C3131"/>
<rect x="357" y="2" width="1" height="1" fill="white"/>
<rect x="358" y="3" width="1" height="1" fill="white"/>
<rect x="357" y="1" width="1" height="1" fill="#2B1A1A"/>
<rect x="358" y="2" width="1" height="1" fill="#2B1A1A"/>
<rect x="359" y="3" width="1" height="1" fill="#2B1A1A"/>
<rect x="357" y="3" width="1" height="1" fill="#2B1A1A"/>
<mask id="path-13-inside-1_24_8594" fill="white">
<path d="M0 4H360V77H0V4Z"/>
</mask>
<path d="M360 4H359V77H360H361V4H360ZM0 77H1V4H0H-1V77H0Z" fill="#2B1A1A" mask="url(#path-13-inside-1_24_8594)"/>
<mask id="path-15-inside-2_24_8594" fill="white">
<path d="M1 4H359V77H1V4Z"/>
</mask>
<path d="M1 4H359V77H1V4Z" fill="#2A1616"/>
<path d="M359 4H358V77H359H360V4H359ZM1 77H2V4H1H0V77H1Z" fill="white" mask="url(#path-15-inside-2_24_8594)"/>
<rect width="1" height="1" transform="matrix(1 8.74228e-08 8.74228e-08 -1 357 79)" fill="white"/>
<rect width="1" height="1" transform="matrix(1 8.74228e-08 8.74228e-08 -1 358 78)" fill="white"/>
<rect width="1" height="1" transform="matrix(1 8.74228e-08 8.74228e-08 -1 357 80)" fill="#2B1A1A"/>
<rect width="1" height="1" transform="matrix(1 8.74228e-08 8.74228e-08 -1 358 79)" fill="#2B1A1A"/>
<rect width="1" height="1" transform="matrix(1 8.74228e-08 8.74228e-08 -1 357 78)" fill="#2B1A1A"/>
<rect width="1" height="1" transform="matrix(1 8.74228e-08 8.74228e-08 -1 359 78)" fill="#2B1A1A"/>
<rect width="354" height="1" transform="translate(357 81) rotate(-180)" fill="#2B1A1A"/>
<rect width="354" height="1" transform="translate(357 80) rotate(-180)" fill="white"/>
<rect width="354" height="1" transform="translate(357 79) rotate(-180)" fill="#2B1A1A"/>
<rect width="354" height="1" transform="translate(357 78) rotate(-180)" fill="#5C3131"/>
<rect x="3" y="79" width="1" height="1" transform="rotate(-180 3 79)" fill="white"/>
<rect x="2" y="78" width="1" height="1" transform="rotate(-180 2 78)" fill="white"/>
<rect x="3" y="80" width="1" height="1" transform="rotate(-180 3 80)" fill="#2B1A1A"/>
<rect x="2" y="79" width="1" height="1" transform="rotate(-180 2 79)" fill="#2B1A1A"/>
<rect x="1" y="78" width="1" height="1" transform="rotate(-180 1 78)" fill="#2B1A1A"/>
<rect x="3" y="78" width="1" height="1" transform="rotate(-180 3 78)" fill="#2B1A1A"/>
</svg>
