<svg width="321" height="4" viewBox="0 0 321 4" fill="none" xmlns="http://www.w3.org/2000/svg">
<rect width="1" height="1" transform="matrix(1 8.74228e-08 8.74228e-08 -1 318 2.00003)" fill="white"/>
<rect width="1" height="1" transform="matrix(1 8.74228e-08 8.74228e-08 -1 319 1.00003)" fill="white"/>
<rect width="1" height="1" transform="matrix(1 8.74228e-08 8.74228e-08 -1 318 3.00003)" fill="#2B1A1A"/>
<rect width="1" height="1" transform="matrix(1 8.74228e-08 8.74228e-08 -1 319 2.00003)" fill="#2B1A1A"/>
<rect width="1" height="1" transform="matrix(1 8.74228e-08 8.74228e-08 -1 318 1.00003)" fill="#2B1A1A"/>
<rect width="1" height="1" transform="matrix(1 8.74228e-08 8.74228e-08 -1 320 1.00003)" fill="#2B1A1A"/>
<rect width="315" height="1" transform="translate(318 4.00003) rotate(-180)" fill="#2B1A1A"/>
<rect width="315" height="1" transform="translate(318 3.00003) rotate(-180)" fill="white"/>
<rect width="315" height="1" transform="translate(318 2.00003) rotate(-180)" fill="#2B1A1A"/>
<rect width="315" height="1" transform="translate(318 1.00003) rotate(-180)" fill="#5C3131"/>
<rect x="3" y="2" width="1" height="1" transform="rotate(-180 3 2)" fill="white"/>
<rect x="2" y="1" width="1" height="1" transform="rotate(-180 2 1)" fill="white"/>
<rect x="3" y="3" width="1" height="1" transform="rotate(-180 3 3)" fill="#2B1A1A"/>
<rect x="2" y="2" width="1" height="1" transform="rotate(-180 2 2)" fill="#2B1A1A"/>
<rect x="1" y="1" width="1" height="1" transform="rotate(-180 1 1)" fill="#2B1A1A"/>
<rect x="3" y="1" width="1" height="1" transform="rotate(-180 3 1)" fill="#2B1A1A"/>
</svg>
