<svg width="3" height="81" viewBox="0 0 3 81" fill="none" xmlns="http://www.w3.org/2000/svg">
<rect width="1" height="1" transform="matrix(8.74228e-08 -1 -1 -8.74228e-08 2.00001 3)" fill="white"/>
<rect width="1" height="1" transform="matrix(8.74228e-08 -1 -1 -8.74228e-08 1.00001 2)" fill="white"/>
<rect width="1" height="1" transform="matrix(8.74228e-08 -1 -1 -8.74228e-08 3.00001 3)" fill="#2B1A1A"/>
<rect width="1" height="1" transform="matrix(8.74228e-08 -1 -1 -8.74228e-08 2.00001 2)" fill="#2B1A1A"/>
<rect width="1" height="1" transform="matrix(8.74228e-08 -1 -1 -8.74228e-08 1.00001 3)" fill="#2B1A1A"/>
<rect width="1" height="1" transform="matrix(8.74228e-08 -1 -1 -8.74228e-08 1.00001 1)" fill="#2B1A1A"/>
<rect width="75" height="1" transform="translate(3.00001 3) rotate(90)" fill="#2B1A1A"/>
<rect width="75" height="1" transform="translate(2.00001 3) rotate(90)" fill="white"/>
<rect width="75" height="1" transform="translate(1.00001 3) rotate(90)" fill="#2B1A1A"/>
<rect x="2.00001" y="78" width="1" height="1" transform="rotate(90 2.00001 78)" fill="white"/>
<rect x="1.00001" y="79" width="1" height="1" transform="rotate(90 1.00001 79)" fill="white"/>
<rect x="3.00001" y="78" width="1" height="1" transform="rotate(90 3.00001 78)" fill="#2B1A1A"/>
<rect x="2.00001" y="79" width="1" height="1" transform="rotate(90 2.00001 79)" fill="#2B1A1A"/>
<rect x="1.00001" y="80" width="1" height="1" transform="rotate(90 1.00001 80)" fill="#2B1A1A"/>
<rect x="1.00001" y="78" width="1" height="1" transform="rotate(90 1.00001 78)" fill="#2B1A1A"/>
</svg>
