<svg width="321" height="4" viewBox="0 0 321 4" fill="none" xmlns="http://www.w3.org/2000/svg">
<rect width="1" height="1" transform="matrix(-1 0 0 1 3 2)" fill="white"/>
<rect width="1" height="1" transform="matrix(-1 0 0 1 2 3)" fill="white"/>
<rect width="1" height="1" transform="matrix(-1 0 0 1 3 1)" fill="#2B1A1A"/>
<rect width="1" height="1" transform="matrix(-1 0 0 1 2 2)" fill="#2B1A1A"/>
<rect width="1" height="1" transform="matrix(-1 0 0 1 3 3)" fill="#2B1A1A"/>
<rect width="1" height="1" transform="matrix(-1 0 0 1 1 3)" fill="#2B1A1A"/>
<rect width="315" height="1" transform="translate(3)" fill="#2B1A1A"/>
<rect width="315" height="1" transform="translate(3 1)" fill="white"/>
<rect width="315" height="1" transform="translate(3 2)" fill="#2B1A1A"/>
<rect width="315" height="1" transform="translate(3 3)" fill="#5C3131"/>
<rect x="318" y="2" width="1" height="1" fill="white"/>
<rect x="319" y="3" width="1" height="1" fill="white"/>
<rect x="318" y="1" width="1" height="1" fill="#2B1A1A"/>
<rect x="319" y="2" width="1" height="1" fill="#2B1A1A"/>
<rect x="320" y="3" width="1" height="1" fill="#2B1A1A"/>
<rect x="318" y="3" width="1" height="1" fill="#2B1A1A"/>
</svg>
